<svg xmlns="http://www.w3.org/2000/svg" viewBox="0 0 1254 1254" width="1254" height="1254">
  <!-- Favicon Different Network Academy — LINGKARAN hitam PENUH #060606 (full
       bleed, menyentuh tepi kanvas) + mark serigala PUTIH di dalamnya; sudut
       di LUAR lingkaran transparan (revisi owner 2026-07-04: tab & Google
       tidak boleh tampak KOTAK — bulat hitam penuh tanpa sampingan putih).
       HANYA untuk tab/SERP; ikon PWA icon-192/512 & apple-touch-icon tetap
       PERSEGI penuh (OS mengisi transparan dgn putih — jangan disamakan). -->
  <circle cx="627" cy="627" r="627" fill="#060606"/>
  <g transform="translate(627,627) scale(0.88) translate(-627,-627)"><g transform="translate(627,627) scale(0.78) translate(-627,-627)" fill="#ffffff">
    <g transform="translate(0,1254) scale(0.1,-0.1)">
      <path d="M2620 9493 c-79 -8 -259 -47 -325 -70 -190 -68 -362 -213 -447 -378 -57 -110 -81 -183 -115 -345 l-27 -125 -6 -740 c-7 -812 -6 -795 -70 -950 -96 -229 -286 -385 -512 -420 l-38 -6 0 -179 0 -180 36 0 c116 0 268 -73 372 -178 82 -84 145 -198 183 -337 22 -78 23 -95 29 -855 8 -843 4 -782 65 -1022 42 -164 165 -352 292 -448 189 -143 363 -189 741 -197 l242 -5 -2 223 -3 224 -165 6 c-358 14 -540 109 -602 314 -39 129 -40 154 -48 905 -8 807 -8 819 -71 996 -44 126 -89 210 -157 295 -85 107 -164 173 -285 240 l-48 26 88 49 c172 96 308 263 386 474 78 211 78 214 87 1015 5 468 11 717 19 750 28 120 36 144 69 208 64 124 190 209 360 242 45 10 151 20 235 23 l152 7 0 90 c0 50 -1 150 -3 223 l-2 132 -197 -2 c-109 0 -214 -3 -233 -5z"/>
      <path d="M9460 9276 l0 -226 110 0 c174 0 358 -33 455 -82 98 -50 158 -118 199 -227 57 -148 58 -157 66 -941 6 -680 8 -731 27 -815 48 -208 124 -360 245 -490 70 -75 178 -156 246 -184 18 -8 32 -16 32 -20 0 -3 -35 -26 -76 -51 -228 -135 -377 -357 -447 -665 -19 -84 -20 -137 -27 -835 -8 -820 -8 -823 -72 -962 -55 -122 -177 -209 -338 -244 -41 -9 -151 -19 -245 -23 l-170 -6 -3 -222 -2 -223 193 0 c217 0 315 10 467 46 333 78 550 301 639 655 48 188 51 247 51 930 0 369 4 680 10 738 30 287 160 511 355 609 62 31 173 62 221 62 l44 0 0 174 0 174 -45 7 c-125 18 -263 90 -355 185 -98 100 -155 206 -202 377 -21 76 -22 101 -28 838 -7 811 -9 847 -61 1035 -89 323 -327 522 -699 586 -61 10 -185 18 -342 21 l-248 6 0 -227z"/>
      <path d="M7014 9217 c-161 -214 -238 -341 -400 -657 -59 -115 -80 -146 -144 -210 -47 -48 -95 -85 -130 -102 -59 -28 -183 -57 -350 -84 -144 -22 -271 -56 -382 -100 -257 -103 -386 -233 -546 -553 -125 -251 -133 -257 -502 -421 -536 -238 -732 -337 -747 -377 -9 -23 12 -116 40 -176 13 -29 45 -75 70 -103 26 -29 55 -75 67 -107 30 -81 90 -165 170 -241 114 -107 226 -153 395 -162 113 -6 152 0 460 71 501 115 736 142 1163 132 319 -8 500 -33 727 -102 55 -17 83 -21 90 -14 18 18 12 198 -9 259 -23 71 -83 172 -135 232 -23 25 -41 49 -41 53 0 5 32 5 72 1 253 -23 406 -135 503 -366 86 -204 95 -435 25 -653 -110 -343 -428 -594 -895 -708 -232 -56 -272 -59 -858 -59 -532 0 -538 0 -532 20 3 11 53 115 109 232 196 404 357 750 353 754 -3 3 -46 -7 -96 -21 -288 -81 -534 -117 -785 -114 l-161 1 -114 -209 c-62 -114 -270 -491 -461 -838 -370 -671 -450 -819 -450 -829 0 -3 598 -6 1328 -6 1265 0 1335 1 1468 20 381 53 681 129 932 237 545 232 932 699 1022 1231 6 39 16 70 21 67 34 -21 137 -245 174 -377 9 -32 20 -58 25 -58 11 0 54 187 80 343 62 375 38 850 -61 1200 -17 60 -29 111 -26 113 6 6 136 -87 202 -147 33 -29 73 -64 89 -78 l28 -26 -7 45 c-14 91 -74 309 -119 430 -172 460 -465 842 -858 1117 l-78 55 0 61 c0 79 -23 210 -61 357 -95 362 -289 732 -479 914 -44 42 -83 76 -87 76 -5 0 -49 -55 -99 -123z m-1071 -1773 c26 -3 47 -10 47 -16 0 -5 -26 -36 -57 -69 -39 -41 -80 -71 -131 -96 -70 -35 -80 -37 -193 -41 -136 -5 -135 -6 -89 74 75 132 203 177 423 148z"/>
      <path d="M6139 9243 c-46 -121 -118 -420 -148 -618 -23 -145 -46 -221 -91 -299 -16 -29 -28 -55 -25 -58 6 -5 140 17 217 37 170 43 309 170 412 375 29 58 58 133 66 167 l13 63 -44 57 c-55 74 -149 165 -219 213 -51 35 -152 90 -165 90 -3 0 -10 -12 -16 -27z"/>
    </g>
  </g>
</g>
</svg>
